# xmcd CD database file
#
# Track frame offsets:
#	150
#	26193
#	44994
#	65481
#	88474
#	104367
#	118652
#	134431
#	158555
#	175113
#	195088
#
# Disc length: 2859 seconds
#
# Revision: 0
# Processed by: cddbd v1.5.2PL0 Copyright (c) Steve Scherf et al.
# Submitted via: CDex 1.70beta2
#
DISCID=9b0b290b
DTITLE=HOME COOKING - GREEN POTATOES Home cooking
DYEAR=2008
DGENRE=Country
TTITLE0=HOME COOKING - 01 TAKING IT EASY
TTITLE1=HOME COOKING - 02 GREEN PATATOES
TTITLE2=HOME COOKING - 03 SEVEN THOUSAND MILES
TTITLE3=HOME COOKING - 04 PAS ENCORE (les fleurs)
TTITLE4=HOME COOKING - 05 BABA-LOO-HAH
TTITLE5=HOME COOKING - 06 LA PETITE POTIERE
TTITLE6=HOME COOKING - 07 SUNDAY AFTERNOON
TTITLE7=HOME COOKING - 08 CRAZY
TTITLE8=HOME COOKING - 09 CHERCHER L'EAU
TTITLE9=HOME COOKING - 10 CAN'T SIT DOWN
TTITLE10=HOME COOKING - 11 WHAT'S HAPPENING (Before you know)
EXTD=YEAR: 2008
EXTT0=
EXTT1=
EXTT2=
EXTT3=
EXTT4=
EXTT5=
EXTT6=
EXTT7=
EXTT8=
EXTT9=
EXTT10=
PLAYORDER=
